# xmcd
#
# Track frame offsets: 
#        150
#        49937
#        75264
#        89945
#        111000
#        131833
#        148607
#
# Disc length: 2211 seconds
#
# Revision: 0
# Processed by: cddbd v1.5.1PL0 Copyright (c) Steve Scherf et al.
# Submitted via: ExactAudioCopy v0.95a5
#
DISCID=5f08a107
DTITLE=Jandek - 0777 A Kindom He Likes
DYEAR=2004
DGENRE=Lo-Fi
TTITLE0=I Gave My Eternity
TTITLE1=Real Afternoons
TTITLE2=A Windy Time
TTITLE3=Your Own Little World
TTITLE4=Sticks in the Marsh
TTITLE5=No One Knows Your Name
TTITLE6=It Rang Eleven Times
EXTD=
EXTT0=
EXTT1=
EXTT2=
EXTT3=
EXTT4=
EXTT5=
EXTT6=
PLAYORDER=
